<?xml version="1.0" standalone="no"?>
<!DOCTYPE svg PUBLIC "-//W3C//DTD SVG 20010904//EN"
 "http://www.w3.org/TR/2001/REC-SVG-20010904/DTD/svg10.dtd">
<svg version="1.0" xmlns="http://www.w3.org/2000/svg"
 width="319.000000pt" height="269.000000pt" viewBox="0 0 319.000000 269.000000"
 preserveAspectRatio="xMidYMid meet">
<metadata>
Created by potrace 1.16, written by Peter Selinger 2001-2019
</metadata>
<g transform="translate(0.000000,269.000000) scale(0.100000,-0.100000)"
fill="#102d26" stroke="none">
<path d="M1402 2253 c-29 -2 -50 -8 -47 -14 4 -5 12 -9 20 -9 23 0 178 -59
218 -83 l37 -23 -63 -41 c-97 -64 -165 -157 -206 -280 -12 -34 -21 -78 -21
-98 0 -35 0 -35 44 -35 l44 0 4 -54 c6 -78 46 -148 144 -256 115 -127 135
-154 143 -193 6 -31 10 -33 91 -53 l85 -21 -53 -11 c-170 -38 -356 22 -490
157 -155 156 -218 332 -209 581 5 143 20 217 67 333 32 77 33 76 -66 46 -214
-66 -428 -220 -501 -361 -24 -47 -27 -63 -25 -140 7 -380 252 -829 595 -1089
86 -65 271 -162 309 -162 36 0 186 74 275 135 106 72 298 266 346 348 105 181
87 306 -61 438 -197 174 -282 278 -282 349 0 43 47 83 99 83 73 0 206 -59 218
-96 2 -7 -19 -29 -46 -50 -28 -22 -50 -43 -51 -48 0 -17 183 1 247 25 77 28
157 86 161 118 11 71 -103 219 -238 311 -121 83 -281 147 -433 174 -88 16
-270 26 -355 19z m561 -190 c28 -9 66 -32 90 -55 39 -37 41 -40 24 -53 -29
-21 -92 -28 -131 -15 -42 14 -86 62 -86 95 0 13 -4 27 -10 30 -5 3 -10 10 -10
15 0 11 60 3 123 -17z"/>
</g>
</svg>
